<svg xmlns="http://www.w3.org/2000/svg" width="39" height="39" viewBox="0 0 39 39"><defs><style>.a{fill:#fff;stroke:#000;stroke-width:2px;}.b{stroke:none;}.c{fill:none;}</style></defs><g transform="translate(735.584 101.584)"><g class="a" transform="translate(-735.584 -101.584)"><circle class="b" cx="19.5" cy="19.5" r="19.5"/><circle class="c" cx="19.5" cy="19.5" r="18.5"/></g><g transform="translate(-726.469 -94.606)"><g transform="translate(0 0)"><path d="M53.644,11.522a6.371,6.371,0,1,0-7.492,0,10.53,10.53,0,0,0-6.767,9.823,3.508,3.508,0,0,0,3.5,3.5H56.906a3.508,3.508,0,0,0,3.5-3.5A10.53,10.53,0,0,0,53.644,11.522Zm-8.206-5.15a4.46,4.46,0,1,1,4.46,4.46A4.465,4.465,0,0,1,45.438,6.371ZM56.906,22.937H42.889A1.6,1.6,0,0,1,41.3,21.344a8.6,8.6,0,0,1,17.2,0A1.6,1.6,0,0,1,56.906,22.937Z" transform="translate(-39.385)"/></g></g></g></svg>