<svg xmlns="http://www.w3.org/2000/svg" width="23.441" height="20.575" viewBox="0 0 23.441 20.575"><path d="M20.694,1.607H19.6V0H17.764V1.607H5.677V0H3.846V1.607h-1.1A2.6,2.6,0,0,0,0,4.019V18.164a2.6,2.6,0,0,0,2.747,2.411H20.694a2.6,2.6,0,0,0,2.747-2.411V4.019A2.6,2.6,0,0,0,20.694,1.607Zm.916,16.556a.866.866,0,0,1-.916.8H2.747a.866.866,0,0,1-.916-.8V7.555H21.61Zm0-12.216H1.831V4.019a.866.866,0,0,1,.916-.8h1.1V4.822H5.677V3.215H17.764V4.822H19.6V3.215h1.1a.866.866,0,0,1,.916.8Z" transform="translate(0)"/><g transform="translate(3.054 9.243)"><rect width="1.607" height="1.607"/></g><g transform="translate(7.216 9.243)"><rect width="1.607" height="1.607"/></g><g transform="translate(10.917 9.243)"><rect width="1.607" height="1.607"/></g><g transform="translate(14.618 9.243)"><rect width="1.607" height="1.607"/></g><g transform="translate(18.78 9.243)"><rect width="1.607" height="1.607"/></g><g transform="translate(3.054 12.458)"><rect width="1.607" height="1.607"/></g><g transform="translate(7.216 12.458)"><rect width="1.607" height="1.607"/></g><g transform="translate(10.917 12.458)"><rect width="1.607" height="1.607"/></g><g transform="translate(14.618 12.458)"><rect width="1.607" height="1.607"/></g><g transform="translate(3.054 15.672)"><rect width="1.607" height="1.607"/></g><g transform="translate(7.216 15.672)"><rect width="1.607" height="1.607"/></g><g transform="translate(10.917 15.672)"><rect width="1.607" height="1.607"/></g><g transform="translate(14.618 15.672)"><rect width="1.607" height="1.607"/></g><g transform="translate(18.78 12.458)"><rect width="1.607" height="1.607"/></g></svg>