<svg xmlns="http://www.w3.org/2000/svg" width="24.943" height="22.948" viewBox="0 0 24.943 22.948"><g transform="translate(0 0)"><path d="M21.514-1.679H3.43A3.433,3.433,0,0,0,0,1.751V12.818a3.433,3.433,0,0,0,3.417,3.429v5.022l7.217-5.022H21.514a3.433,3.433,0,0,0,3.429-3.429V1.751a3.433,3.433,0,0,0-3.429-3.429Zm1.968,14.5a1.97,1.97,0,0,1-1.968,1.968H10.177l-5.3,3.686V14.785H3.43a1.97,1.97,0,0,1-1.968-1.968V1.751A1.97,1.97,0,0,1,3.43-.217H21.514a1.97,1.97,0,0,1,1.968,1.968Zm0,0" transform="translate(-0.001 1.679)"/><path d="M215.857,165.3h11.591v1.462H215.857Zm0,0" transform="translate(-209.181 -160.134)"/><path d="M215.857,266.111h11.591v1.461H215.857Zm0,0" transform="translate(-209.181 -257.829)"/><path d="M215.857,366.924h11.591v1.462H215.857Zm0,0" transform="translate(-209.181 -355.525)"/></g></svg>