<svg xmlns="http://www.w3.org/2000/svg" width="24.612" height="24.614" viewBox="0 0 24.612 24.614"><defs><style>.a{fill:#b24747;}</style></defs><path class="a" d="M23.951,10.706l0,0L13.908.664a2.265,2.265,0,0,0-3.2,0L.668,10.7l-.01.01A2.265,2.265,0,0,0,2.166,14.57q.035,0,.07,0h.4v7.389a2.655,2.655,0,0,0,2.652,2.652H9.216a.721.721,0,0,0,.721-.721V18.1a1.211,1.211,0,0,1,1.21-1.21h2.317a1.211,1.211,0,0,1,1.21,1.21v5.793a.721.721,0,0,0,.721.721h3.928a2.655,2.655,0,0,0,2.652-2.652V14.573h.371a2.266,2.266,0,0,0,1.6-3.867Zm0,0" transform="translate(0 0)"/></svg>