<svg xmlns="http://www.w3.org/2000/svg" width="24.312" height="24.312" viewBox="0 0 24.312 24.312"><g transform="translate(-2.25 -2.25)"><path d="M17.841,22.44V14.625H14.368v1.737H16.1V22.44H13.5v1.737h6.946V22.44Z" transform="translate(-2.567 -2.824)"/><path d="M17.615,7.875a1.3,1.3,0,1,0,1.3,1.3A1.3,1.3,0,0,0,17.615,7.875Z" transform="translate(-3.209 -1.284)"/><path d="M14.406,26.562A12.156,12.156,0,1,1,26.562,14.406,12.156,12.156,0,0,1,14.406,26.562Zm0-22.576A10.419,10.419,0,1,0,24.826,14.406,10.419,10.419,0,0,0,14.406,3.987Z"/></g></svg>