<svg xmlns="http://www.w3.org/2000/svg" width="24.613" height="24.356" viewBox="0 0 24.613 24.356"><defs><style>.a{fill:#0068ca;stroke:#0068ca;}</style></defs><g transform="translate(0.5 0.502)"><path class="a" d="M949.954,535.75a31.08,31.08,0,0,0-4.911,0,1.815,1.815,0,0,0-.967.407,1.7,1.7,0,0,0-.56,1.1l.009,9.182a1.656,1.656,0,0,0,.367.874,1.723,1.723,0,0,0,1.162.59,14.228,14.228,0,0,0,2.264.137,4.856,4.856,0,0,0,1.1-.137,2.2,2.2,0,0,0,1.014-.433,1.788,1.788,0,0,0,.524-1.22Z" transform="translate(-943.516 -524.685)"/><path class="a" d="M950.4,537.558l.94-.534c.009-.019,1.731-3.832,1.738-3.851l1.619-3.586v-3.673a1.468,1.468,0,0,1,1.073-.3,1.521,1.521,0,0,1,.65.317,3.51,3.51,0,0,1,1.074,1.345,4.32,4.32,0,0,1,.419,1.547l-.474,3.054-.561,1.823.059.511.331.217,7.654.028a1.734,1.734,0,0,1,.853.3,1.821,1.821,0,0,1,.719,1.19,1.786,1.786,0,0,1-.315,1.136,1.7,1.7,0,0,1-.448.427.576.576,0,0,0-.245.524.6.6,0,0,0,.281.439,1.394,1.394,0,0,1,.722,1.031,1.335,1.335,0,0,1-.468,1.231c-.224.158-.356.1-.709.321a2.18,2.18,0,0,0-.448.374l-.016.272.158.3a1.419,1.419,0,0,1,.4.729,1.377,1.377,0,0,1-.7,1.484c-.3.142-.6.11-.8.334a.521.521,0,0,0-.111.19.576.576,0,0,0,0,.345c.064.227.205.294.336.469a1.3,1.3,0,0,1,.228.8,1.408,1.408,0,0,1-.335.862,1.771,1.771,0,0,1-.8.485c-.752.22-4.774.226-10.262,0a4.184,4.184,0,0,1-2.564-.807Z" transform="translate(-942.889 -525.601)"/></g></svg>