<svg xmlns="http://www.w3.org/2000/svg" width="22.955" height="20.175" viewBox="0 0 22.955 20.175"><path d="M22.287,2.69h-6.1V2.017A2.02,2.02,0,0,0,14.168,0H8.788A2.02,2.02,0,0,0,6.77,2.017V2.69H.673A.674.674,0,0,0,0,3.362V18.157a2.02,2.02,0,0,0,2.017,2.017h18.92a2.02,2.02,0,0,0,2.017-2.017V3.374a.653.653,0,0,0-.668-.684ZM8.115,2.017a.673.673,0,0,1,.672-.672h5.38a.673.673,0,0,1,.672.672V2.69H8.115ZM21.349,4.035,19.261,10.3a.671.671,0,0,1-.638.46H14.84v-.672a.672.672,0,0,0-.672-.672H8.788a.672.672,0,0,0-.672.672v.672H4.332a.671.671,0,0,1-.638-.46L1.606,4.035ZM13.5,10.76V12.1H9.46V10.76Zm8.115,7.4a.673.673,0,0,1-.672.672H2.018a.673.673,0,0,1-.672-.672V7.507l1.073,3.219A2.015,2.015,0,0,0,4.332,12.1H8.115v.672a.672.672,0,0,0,.672.672h5.38a.672.672,0,0,0,.672-.672V12.1h3.783a2.015,2.015,0,0,0,1.914-1.379L21.61,7.507Zm0,0" transform="translate(0 0)"/></svg>