<svg xmlns="http://www.w3.org/2000/svg" width="42.476" height="51.061" viewBox="0 0 42.476 51.061"><defs><style>.a{fill:#f8ffff;}.b{fill:#8a3434;}.c{fill:#b24747;}</style></defs><g transform="translate(-1403 -778.133)"><g transform="translate(1403 778.133)"><path class="a" d="M1403,822.072v-15.26a4.513,4.513,0,0,1,1.4-2.255c.847-.647.7-1.616.7-2.5.021-6.264.006-12.529.012-18.794,0-4.662.452-5.1,5.13-5.1,7.884,0,15.769.028,23.653-.025a4.535,4.535,0,0,1,3.588,1.493,42.894,42.894,0,0,0,4.283,4.079,4.974,4.974,0,0,1,1.764,4.2c-.013,4.684,0,9.369-.01,14.053a3.969,3.969,0,0,0,1.169,3.37,3.1,3.1,0,0,1,.777,2.509q0,6.6,0,13.207a3.1,3.1,0,0,1-.042.839c-.227,1.066-1,1.339-1.557,2.12-1.053,1.479.06,2.827-.973,4.155a3.119,3.119,0,0,1-1.656,1.033H1407.4a2.6,2.6,0,0,1-2.159-2.813,2.718,2.718,0,0,0-1.271-2.581C1403.33,823.418,1403.307,822.658,1403,822.072Z" transform="translate(-1403 -778.133)"/><path class="b" d="M1426.772,859.763q8.616,0,17.232,0c2.02,0,2.512.483,2.518,2.465q.018,5.841,0,11.682c-.006,1.984-.495,2.463-2.518,2.464q-17.317.009-34.633,0c-1.907,0-2.425-.508-2.432-2.379q-.023-5.926,0-11.852c.007-1.87.526-2.376,2.432-2.379Q1418.071,859.752,1426.772,859.763Z" transform="translate(-1405.58 -831.763)"/><path class="b" d="M1428.982,782.614c4.057,0,8.115.021,12.172-.017a2.628,2.628,0,0,1,2.084.835c1.621,1.649,3.276,3.268,4.987,4.822a2.833,2.833,0,0,1,.97,2.356c-.042,5.422-.009,10.843-.037,16.265,0,.605.453,1.566-.882,1.525-1.211-.037-.772-.907-.776-1.46-.03-5.2-.072-10.393.018-15.587.024-1.4-.435-1.8-1.713-1.63a15.069,15.069,0,0,1-1.52.013c-1.574.049-2.211-.74-2.231-2.281-.041-3.147-.074-3.147-3.268-3.147-6.988,0-13.976.028-20.964-.027-1.171-.01-1.512.275-1.5,1.482.06,7,.044,14.006,0,21.009,0,.568.563,1.58-.768,1.618-1.471.042-.867-1.072-.871-1.685-.04-7.285-.028-14.571-.025-21.856,0-2.208.029-2.233,2.318-2.235Q1422.98,782.612,1428.982,782.614Z" transform="translate(-1410.599 -781.066)"/><path class="c" d="M1434.412,819.915c-1.754-.218-3.368-.426-4.984-.615-.763-.089-1.49-.211-1.564-1.181-.079-1.034-.108-2.092,1-2.65.646-.327,1.379-.478,2.045-.772,1.463-.647,1.818-1.747.695-2.891-1.941-1.977-1.247-4.083-.505-6.163a3.013,3.013,0,0,1,3.1-1.926,3.167,3.167,0,0,1,3.171,1.841c.836,2.083,1.382,4.17-.37,6.193-1.31,1.512-.941,2.441,1.153,3.073,1.547.466,2.684,1.092,2.491,3-.082.821-.4,1.258-1.178,1.372C1437.74,819.453,1436.017,819.688,1434.412,819.915Z" transform="translate(-1419.314 -794.941)"/><path class="b" d="M1431.849,914.553q-7.693,0-15.386,0c-.691,0-1.522.048-1.652-.791a6.922,6.922,0,0,1,.12-3.483c.056-.151.726-.138,1.1-.091.464.058.418.506.362.8-.347,1.82.648,1.9,2.091,1.894q13.7-.087,27.391,0c1.255.007,1.907-.221,1.679-1.627-.086-.535-.149-1.108.769-1.136.99-.031.929.542.909,1.187-.011.339,0,.678,0,1.017-.007,2.158-.066,2.226-2.162,2.227Q1439.458,914.558,1431.849,914.553Z" transform="translate(-1410.653 -864.849)"/><path class="c" d="M1455.493,825.467c.555-2.271,2.135-2.487,4.084-2.409,3.2.129,6.409.036,9.614.034.911,0,2.021-.091,2.059,1.148s-1.047,1.229-1.977,1.228C1464.671,825.465,1460.069,825.467,1455.493,825.467Z" transform="translate(-1437.488 -807.641)"/><path class="c" d="M1465.662,809.22c2.021,0,4.042.006,6.062,0,.868,0,1.685.2,1.662,1.216s-.858,1.166-1.716,1.164c-3.873-.01-7.748-.065-11.619.025-1.54.036-1.186-1.154-1.306-1.846-.166-.956.766-.52,1.192-.533C1461.844,809.188,1463.754,809.219,1465.662,809.22Z" transform="translate(-1439.612 -798.515)"/><path class="c" d="M1466.069,838.029c3.536,0,7.071-.008,10.606.006.769,0,1.36.387,1.344,1.2s-.614,1.158-1.384,1.16c-3.148.008-6.3-.02-9.444.015-1.78.02-.441-1.613-1.429-1.985Z" transform="translate(-1444.235 -817.483)"/><path class="a" d="M1460.142,876.767c-.356-3.785,1.8-4.419,3.735-4.185a2.68,2.68,0,0,1,2.086,1.529c.241.449.315.871-.151,1.188a.818.818,0,0,1-1.2-.179c-.5-.65-.974-1.311-1.931-.875s-.9,1.328-.889,2.18c0,.507,0,1.015.006,1.522a1.574,1.574,0,0,0,1.093,1.549,1.18,1.18,0,0,0,1.438-.593c.41-.609.972-.946,1.529-.454.7.621.1,1.263-.336,1.743a3.034,3.034,0,0,1-3.418.762,2.691,2.691,0,0,1-1.963-2.663C1460.134,877.782,1460.142,877.274,1460.142,876.767Z" transform="translate(-1440.517 -840.158)"/><path class="a" d="M1483.12,878.323c.682-1.563,1.257-2.847,1.8-4.144.252-.6.514-1.272,1.3-.977.953.359.5,1.087.244,1.7-.769,1.817-1.553,3.627-2.319,5.446-.2.482-.4.978-1,1.007-.627.03-.848-.478-1.05-.948-.823-1.917-1.634-3.84-2.451-5.76-.234-.552-.409-1.127.3-1.433.685-.295,1.04.173,1.284.732C1481.826,875.327,1482.421,876.71,1483.12,878.323Z" transform="translate(-1453.217 -840.543)"/><path class="a" d="M1435.78,879.126a1.645,1.645,0,0,1-1.4,1.593c-.876.176-1.792-.169-1.862-1.018a2.677,2.677,0,0,0-2.566-2.772,1.5,1.5,0,0,1-1.243-1.764,1.609,1.609,0,0,1,1.585-1.481,1.485,1.485,0,0,1,1.713,1.294,2.634,2.634,0,0,0,2.5,2.5A1.545,1.545,0,0,1,1435.78,879.126Z" transform="translate(-1419.879 -840.905)"/><path class="a" d="M1442.017,876.7c-.876-.177-1.487-.655-1.433-1.585a1.5,1.5,0,0,1,2.989.128C1443.539,876.183,1442.906,876.606,1442.017,876.7Z" transform="translate(-1427.691 -840.921)"/><path class="a" d="M1431.748,887.052a1.48,1.48,0,0,1-1.478,1.536,1.484,1.484,0,1,1-.108-2.966A1.5,1.5,0,0,1,1431.748,887.052Z" transform="translate(-1419.898 -848.753)"/></g></g></svg>