<svg xmlns="http://www.w3.org/2000/svg" width="24.236" height="20.652" viewBox="0 0 24.236 20.652"><defs><style>.a{stroke:#000;stroke-width:0.3px;}</style></defs><g transform="translate(0.15 0.15)"><path class="a" d="M23.537,3.731H17.553V1.7A1.866,1.866,0,0,0,15.559,0H8.378A1.866,1.866,0,0,0,6.383,1.7V3.731H.4A.373.373,0,0,0,0,4.07V18.656a1.866,1.866,0,0,0,1.995,1.7H21.942a1.866,1.866,0,0,0,1.995-1.7V4.07A.373.373,0,0,0,23.537,3.731ZM7.181,1.7A1.12,1.12,0,0,1,8.378.678h7.181a1.12,1.12,0,0,1,1.2,1.018V3.731h-.8V1.7a.373.373,0,0,0-.4-.339H8.378a.373.373,0,0,0-.4.339V3.731h-.8Zm7.979.339v1.7H8.777v-1.7ZM6.782,15.6v4.07h-1.6V15.6a.322.322,0,0,0-.143-.261l-2.25-1.594V12.035l1.2-.814v1.669a.325.325,0,0,0,.16.271l1.6,1.018a.455.455,0,0,0,.478,0l1.6-1.018a.325.325,0,0,0,.16-.271V11.221l1.2.814v1.713l-2.25,1.594A.323.323,0,0,0,6.782,15.6Zm8.378,4.07H11.17V19H15.16Zm-2.511-6.006-.632-.537.651-1.936h.994l.651,1.936-.632.537a.315.315,0,0,0-.117.24v4.41h-.8v-4.41A.315.315,0,0,0,12.649,13.667Zm8.1,6.006h-1.2V19h-.8v.678h-1.2v-.538l1.479-1.257a.315.315,0,0,0,.117-.24.315.315,0,0,0,.117.24l1.479,1.257ZM18.75,17.159l-1.2-1.018V13.369l.963-.819h.234Zm4.388,1.5a1.12,1.12,0,0,1-1.2,1.018h-.4V19a.315.315,0,0,0-.117-.24l-1.314-1.117,1.314-1.117a.315.315,0,0,0,.117-.24V13.229a.315.315,0,0,0-.117-.24l-1.2-1.018a.435.435,0,0,0-.282-.1h-1.6a.435.435,0,0,0-.282.1l-1.2,1.018a.315.315,0,0,0-.117.24v3.053a.315.315,0,0,0,.117.24l1.314,1.117-1.314,1.117a.315.315,0,0,0-.117.24v.678h-.8V18.656a.373.373,0,0,0-.4-.339h-1.2V14.047l.681-.579a.306.306,0,0,0,.1-.333l-.8-2.374a.4.4,0,0,0-.384-.246h-1.6a.4.4,0,0,0-.384.246l-.8,2.374a.305.305,0,0,0,.1.333l.681.579v4.269h-1.2a.373.373,0,0,0-.4.339v1.018H7.58V15.762l2.25-1.594a.322.322,0,0,0,.143-.261V11.872a.323.323,0,0,0-.15-.265L7.829,10.25a.46.46,0,0,0-.422-.041.341.341,0,0,0-.226.306v2.2l-1.2.763-1.2-.763v-2.2a.34.34,0,0,0-.226-.306.458.458,0,0,0-.422.041L2.144,11.607a.322.322,0,0,0-.15.265v2.035a.322.322,0,0,0,.143.261l2.25,1.594v3.912H1.995A1.12,1.12,0,0,1,.8,18.656V8.819H23.138Zm-3.59-1.5V12.55h.234l.963.819v2.772Zm3.59-9.018H.8V4.41H23.138Z" transform="translate(0 0)"/><g transform="translate(9.973 6.406)"><rect class="a" width="0.798" height="0.798"/></g><g transform="translate(11.569 6.406)"><rect class="a" width="0.798" height="0.798"/></g><g transform="translate(13.165 6.406)"><rect class="a" width="0.798" height="0.798"/></g></g></svg>